# xmcd
#
# Track frame offsets: 
#        150
#        12786
#        24847
#        37275
#        50529
#        63173
#        75572
#        88746
#        101272
#        114053
#        127416
#        139225
#        152136
#        162863
#        176356
#        187770
#        203046
#        214170
#        227014
#        239459
#        251512
#
# Disc length: 3550 seconds
#
# Revision: 1
# Processed by: cddbd v1.5.2PL0 Copyright (c) Steve Scherf et al.
# Submitted via: ExactAudioCopyFreeDBPlugin 1.0
#
DISCID=0e0ddc15
DTITLE=Sonny Boy Williamson I.&II. - ABC Of The Blues - Vol. 50 Willia
DTITLE=mson
DYEAR=2010
DGENRE=Blues
TTITLE0=Sonny Boy Williamson I. (John Lee) - Black Gal Blues
TTITLE1=Sonny Boy Williamson I. (John Lee) - Bad Luck Blues
TTITLE2=Sonny Boy Williamson I. (John Lee) - My Black Name Blues
TTITLE3=Sonny Boy Williamson I. (John Lee) - Stop Breaking Down
TTITLE4=Sonny Boy Williamson I. (John Lee) - Train Fare Blues
TTITLE5=Sonny Boy Williamson I. (John Lee) - Check Up On My Baby Blues
TTITLE6=Sonny Boy Williamson I. (John Lee) - Ho Doo Hoo Doo
TTITLE7=Sonny Boy Williamson I. (John Lee) - Shake The Boogie
TTITLE8=Sonny Boy Williamson I. (John Lee) - Welfare Store Blues
TTITLE9=Sonny Boy Williamson I. (John Lee) - Better Cut That Out
TTITLE10=Sonny Boy Williamson II. (Rice Miller) - Don´t Start Me To Ta
TTITLE10=lkin´
TTITLE11=Sonny Boy Williamson II. (Rice Miller) - Keep It To Yourself
TTITLE12=Sonny Boy Williamson II. (Rice Miller) - Fattening Frogs For 
TTITLE12=Snakes
TTITLE13=Sonny Boy Williamson II. (Rice Miller) - Wake Up Baby
TTITLE14=Sonny Boy Williamson II. (Rice Miller) - Your Funeral And My 
TTITLE14=Trial
TTITLE15=Sonny Boy Williamson II. (Rice Miller) - Cross My Heart
TTITLE16=Sonny Boy Williamson II. (Rice Miller) - I Don´t Know
TTITLE17=Sonny Boy Williamson II. (Rice Miller) - All My Love In Vain
TTITLE18=Sonny Boy Williamson II. (Rice Miller) - Dissatisfied
TTITLE19=Sonny Boy Williamson II. (Rice Miller) - 99
TTITLE20=Sonny Boy Williamson II. (Rice Miller) - The Key (To Your Doo
TTITLE20=r)
EXTD=
EXTT0=
EXTT1=
EXTT2=
EXTT3=
EXTT4=
EXTT5=
EXTT6=
EXTT7=
EXTT8=
EXTT9=
EXTT10=
EXTT11=
EXTT12=
EXTT13=
EXTT14=
EXTT15=
EXTT16=
EXTT17=
EXTT18=
EXTT19=
EXTT20=
PLAYORDER=
